<svg width="723" height="477" viewBox="0 0 723 477" fill="none" xmlns="http://www.w3.org/2000/svg">
<path opacity="0.2" fill-rule="evenodd" clip-rule="evenodd" d="M492.096 85.3696C566.022 90.1655 625.839 125.657 641.975 181.769C664.978 261.758 590.505 353.358 475.634 386.365C393.745 409.894 313.432 397.294 265.731 359.14C166.247 367.463 80.8493 328.87 60.9963 259.834C36.7983 175.688 119.138 78.1785 244.907 42.0402C346.31 12.9036 444.985 32.5579 492.096 85.3696V85.3696Z" fill="url(#paint0_linear_8_2)"/>
<path fill-rule="evenodd" clip-rule="evenodd" d="M651.024 227.402L530.253 204.872C495.205 256.206 478.62 299.499 480.498 334.749C502.642 343.923 545.271 358.442 608.387 378.304L659.171 241.787C661.251 236.195 658.402 229.976 652.808 227.896C652.229 227.681 651.632 227.516 651.024 227.402Z" fill="url(#paint1_linear_8_2)"/>
<mask id="mask0_8_2" style="mask-type:alpha" maskUnits="userSpaceOnUse" x="497" y="203" width="73" height="99">
<path d="M530.294 234.28C531.395 238.081 530.897 240.824 528.798 242.509C525.649 245.037 522.487 249.337 519.369 249.691C516.251 250.045 512.876 251.754 512.329 256.125C512.065 258.237 501.247 269.155 497.382 284.177C496.404 287.98 497.594 293.832 500.953 301.733L509.891 296.816L522.621 276.205C536.758 271.296 544.728 268.255 546.529 267.082C549.232 265.322 557.988 257.794 556.299 254.971C554.611 252.148 560.104 234.213 563.365 230.727C566.627 227.24 569.299 218.745 569.364 215.608C569.429 212.472 570.56 203.081 562.419 203.381C556.991 203.581 546.282 213.88 530.294 234.28Z" fill="white"/>
</mask>
<g mask="url(#mask0_8_2)">
<path d="M530.294 234.28C531.395 238.081 530.897 240.824 528.798 242.509C525.649 245.037 522.487 249.337 519.369 249.691C516.251 250.045 512.876 251.754 512.329 256.125C512.065 258.237 501.247 269.155 497.382 284.177C496.404 287.98 497.594 293.832 500.953 301.733L509.891 296.816L522.621 276.205C536.758 271.296 544.728 268.255 546.529 267.082C549.232 265.322 557.988 257.794 556.299 254.971C554.611 252.148 560.104 234.213 563.365 230.727C566.627 227.24 569.299 218.745 569.364 215.608C569.429 212.472 570.56 203.081 562.419 203.381C556.991 203.581 546.282 213.88 530.294 234.28Z" fill="#D8B08D"/>
<path style="mix-blend-mode:multiply" fill-rule="evenodd" clip-rule="evenodd" d="M560.747 250.414C550.451 232.15 542.899 220.726 538.09 216.143C533.281 211.559 544.754 206.957 572.509 202.337L560.747 255.586V250.414Z" fill="url(#paint2_linear_8_2)"/>
</g>
<path fill-rule="evenodd" clip-rule="evenodd" d="M521.855 169.84C518.128 172.349 521.307 182.444 517.273 188.207C515.068 191.358 510.428 193.11 508.286 194.364C502.226 197.912 508.454 200.444 509.706 202.556C510.958 204.667 509.96 209.438 509.022 213.197C508.084 216.957 504.757 225.43 508.324 227.323C511.892 229.216 533.795 237.481 540.128 234.957C546.462 232.432 548.726 219.786 550.287 218.963C551.849 218.14 552.945 219.008 554.386 219.368C558.137 220.303 561.525 218.201 563.328 215.21C565.37 211.823 568.273 213.369 566.703 208.74C564.282 201.599 550.245 173.473 544.668 171.451C539.091 169.429 527.619 165.96 521.855 169.84Z" fill="#F7CAA4"/>
<path fill-rule="evenodd" clip-rule="evenodd" d="M540.048 177.568C525.785 174.013 519.152 177.197 513.988 166.117C510.937 159.572 516.877 139.496 526.879 139.041C529.34 150.264 541.232 151.228 548.122 152.161C585.117 157.167 588.988 190.979 577.913 210.895C574.347 217.307 571.048 221.914 568.105 225.368C566.237 227.561 563.795 230.203 562.971 231.457C562.695 231.875 560.309 237.156 559.896 237.053C558.649 236.742 559.15 236.68 559.762 231.214C560.374 225.748 560.715 224.277 561.825 219.829C562.152 218.515 568.356 208.424 563.592 204.771C560.416 202.335 556.125 203.823 550.72 209.234L547.437 207.998C549.606 203.178 550.976 199.619 551.55 197.323C552.409 193.878 554.311 181.123 540.048 177.568Z" fill="black"/>
<path fill-rule="evenodd" clip-rule="evenodd" d="M547.442 208.162C546.353 210.588 542.245 216.179 538.537 218.198C534.829 220.218 527.02 220.341 525.417 218.039C523.815 215.736 516.538 205.308 509.979 203.673C509.65 204.993 508.752 207.238 507.284 210.409C512.36 212.519 515.308 214.503 516.129 216.362C517.359 219.151 518.02 217.282 516.791 218.521C515.562 219.761 509.145 218.808 508.658 213.972C506.807 217.823 504.818 228.217 505.519 230.592C506.22 232.967 510.255 234.056 514.237 234.312C518.22 234.568 532.407 236.732 536.021 235.994C539.635 235.256 544.225 235.681 547.248 226.93C550.272 218.179 549.6 212.509 553.545 205.056C557.49 197.602 548.53 205.737 547.442 208.162Z" fill="#3A3838"/>
<mask id="mask1_8_2" style="mask-type:alpha" maskUnits="userSpaceOnUse" x="449" y="243" width="153" height="127">
<path d="M558.744 243.557C573.733 246.97 583.805 252.658 588.958 260.621C596.688 272.566 600.561 304.296 600.561 314.588C600.561 324.879 601.794 350.127 600.561 357.015C599.329 363.903 593.668 369.02 581.955 369.02C574.145 369.02 529.883 354.5 449.168 325.461C459.783 320.214 465.259 316.59 465.597 314.588C466.104 311.584 490.736 256.816 498.526 251.237C506.317 245.658 522.488 243.017 528.971 243.017C528.024 245.648 525.915 247.77 528.896 251.237C531.877 254.704 537.727 255.309 543.522 252.903C547.385 251.299 552.459 248.184 558.744 243.557Z" fill="white"/>
</mask>
<g mask="url(#mask1_8_2)">
<path d="M558.744 243.557C573.733 246.97 583.805 252.658 588.958 260.621C596.688 272.566 600.561 304.296 600.561 314.588C600.561 324.879 601.794 350.127 600.561 357.015C599.329 363.903 593.668 369.02 581.955 369.02C574.145 369.02 529.883 354.5 449.168 325.461C459.783 320.214 465.259 316.59 465.597 314.588C466.104 311.584 490.736 256.816 498.526 251.237C506.317 245.658 522.488 243.017 528.971 243.017C528.024 245.648 525.915 247.77 528.896 251.237C531.877 254.704 537.727 255.309 543.522 252.903C547.385 251.299 552.459 248.184 558.744 243.557Z" fill="#F05C42"/>
<path d="M558.744 243.557C573.733 246.97 583.805 252.658 588.958 260.621C596.688 272.566 600.561 304.296 600.561 314.588C600.561 324.879 601.794 350.127 600.561 357.015C599.329 363.903 593.668 369.02 581.955 369.02C574.145 369.02 529.883 354.5 449.168 325.461C459.783 320.214 465.259 316.59 465.597 314.588C466.104 311.584 490.736 256.816 498.526 251.237C506.317 245.658 522.488 243.017 528.971 243.017C528.024 245.648 525.915 247.77 528.896 251.237C531.877 254.704 537.727 255.309 543.522 252.903C547.385 251.299 552.459 248.184 558.744 243.557Z" fill="url(#paint3_linear_8_2)"/>
<g filter="url(#filter0_i_8_2)">
<path d="M558.744 243.557C573.733 246.97 583.805 252.658 588.958 260.621C596.688 272.566 600.561 304.296 600.561 314.588C600.561 324.879 601.794 350.127 600.561 357.015C599.329 363.903 593.668 369.02 581.955 369.02C574.145 369.02 529.883 354.5 449.168 325.461C459.783 320.214 465.259 316.59 465.597 314.588C466.104 311.584 490.736 256.816 498.526 251.237C506.317 245.658 522.488 243.017 528.971 243.017C528.024 245.648 525.915 247.77 528.896 251.237C531.877 254.704 537.727 255.309 543.522 252.903C547.385 251.299 552.459 248.184 558.744 243.557Z" fill="#2D6DC0"/>
</g>
<path style="mix-blend-mode:multiply" opacity="0.585435" fill-rule="evenodd" clip-rule="evenodd" d="M521.075 245.125C508.662 257.826 533.15 264.594 543.15 261.21C549.816 258.954 556.889 253.593 564.37 245.125C545.52 231.103 533.592 227.598 528.586 234.609C521.075 245.125 533.489 232.423 521.075 245.125Z" fill="url(#paint4_linear_8_2)"/>
<path style="mix-blend-mode:multiply" opacity="0.54654" fill-rule="evenodd" clip-rule="evenodd" d="M503.384 360.042C512.224 360.042 569.696 350.529 569.696 342.807C569.696 337.659 568.219 316.95 565.265 280.682" fill="url(#paint5_linear_8_2)"/>
<path style="mix-blend-mode:multiply" opacity="0.54654" fill-rule="evenodd" clip-rule="evenodd" d="M422.869 326.551C426.872 326.551 445.382 349.992 462.294 342.102C482.723 332.571 494.619 297.281 494.619 293.056C494.619 289.824 499.983 278.362 497.94 265.874C497.133 260.939 493.435 253.11 486.846 242.387" fill="url(#paint6_linear_8_2)"/>
</g>
<path fill-rule="evenodd" clip-rule="evenodd" d="M355.601 70.9823C357.776 87.5532 358.193 97.1959 356.852 99.9104C354.839 103.982 358.737 123.137 371.147 124.248C383.557 125.358 390.063 120.073 390.55 107.149C391.038 94.2251 391.815 89.2426 393.82 83.5238C395.824 77.8049 358.473 54.1115 356.852 58.4918C355.77 61.412 355.354 65.5755 355.601 70.9823Z" fill="#D8B08D"/>
<path fill-rule="evenodd" clip-rule="evenodd" d="M406.608 32.913C406.608 36.5975 407.098 48.0996 406.727 51.0142C406.357 53.9289 406.062 58.2724 406.395 63.8836C406.727 69.4949 403.812 83.2958 400.558 88.2957C398.615 91.2809 390.913 97.0359 383.359 96.2274C374.404 95.2689 364.612 86.625 363.564 82.3028C361.633 74.3347 363.233 67.3031 357.668 63.0689C352.104 58.8347 348.049 54.9018 348.549 48.3651C349.049 41.8284 354.764 26.2676 357.668 25.6137C360.573 24.9598 406.608 29.2286 406.608 32.913Z" fill="#F7CAA4"/>
<path fill-rule="evenodd" clip-rule="evenodd" d="M358.802 28.2087C361.443 32.1916 384.562 51.3918 407.734 38.9264C430.906 26.4611 400.082 3.83176 386.104 1.25C372.127 -1.3317 360.09 0.103312 351.636 11.8298C343.181 23.5564 338.94 43.6542 355.48 70.9182C356.208 66.5918 356.572 63.7085 356.572 62.2686C349.99 56.249 348.345 50.6395 351.636 45.4401C356.572 37.641 358.205 52.9323 358.802 55.3888C360.767 55.3888 362.003 55.0464 362.512 54.3615C361.158 50.5021 360.664 46.933 361.031 43.6542C361.58 38.7358 363.205 37.641 358.802 28.2087Z" fill="#333333"/>
<path fill-rule="evenodd" clip-rule="evenodd" d="M314.687 315.719C314.687 309.71 307.723 270.352 322.076 258.527C336.428 246.702 354.182 263.952 419.567 266.566C420.644 292.999 420.644 311.609 419.567 322.394C418.491 333.179 378.995 348.468 314.687 315.719Z" fill="#3D82F0"/>
<path fill-rule="evenodd" clip-rule="evenodd" d="M303.604 264.749C305.145 271.575 310.247 278.868 311.965 280.442C313.684 282.017 319.936 283.969 321.118 283.59C322.3 283.211 325.411 280.612 325.552 277.57C325.692 274.528 322.708 272.814 322.688 268.319C322.667 263.825 315.189 257.305 315.189 253.329C315.189 249.352 302.062 257.922 303.604 264.749Z" fill="#F7CAA4"/>
<path fill-rule="evenodd" clip-rule="evenodd" d="M495.808 255.383C500.446 261.533 503.466 262.609 505.204 264.443C506.942 266.277 510.921 272.751 512.398 271.672C513.875 270.593 515.405 268.467 513.106 264.443C510.807 260.418 507.326 256.174 508.535 254.043C509.743 251.913 515.642 245.617 520.566 244.155C525.49 242.693 527.125 243.637 527.616 242.852C528.107 242.067 521.728 240.927 519.099 240.632C516.471 240.337 512.746 239.999 507.375 240.632C503.795 241.054 501.3 239.566 499.893 236.168C494.078 244.879 492.716 251.283 495.808 255.383Z" fill="#F7CAA4"/>
<mask id="mask2_8_2" style="mask-type:alpha" maskUnits="userSpaceOnUse" x="281" y="100" width="225" height="182">
<path d="M317.414 255.553C314.125 253.701 303.117 258.122 303.117 267.064C297.271 247.174 281.047 220.251 281.047 190.828C288.485 165.178 307.887 124.74 312.22 118.393C315.108 114.162 329.421 108.239 355.158 100.626C360.915 106.915 367.737 110.059 375.625 110.059C387.457 110.059 388.078 102.806 391.239 102.428C394.4 102.049 412.307 110.059 421.139 118.581C429.971 127.103 439.427 160.62 462.659 186.637C485.892 212.655 494.225 230.807 505.752 240.583C501.523 244.368 495.794 246.573 495.794 255.553C491.622 252.495 468.344 236.492 448.614 217.863C428.885 199.235 420.135 183.743 417.157 181.646C413.733 179.234 421.473 253.851 421.139 267.064C420.805 280.277 375.356 281.031 361.143 281.031C346.93 281.031 324.949 276.113 319.307 271.264C318.377 270.465 320.815 165.555 319.307 169.957C315.483 181.125 306.602 186.637 306.602 193.992C306.602 211.084 317.434 256.756 317.414 255.553Z" fill="white"/>
</mask>
<g mask="url(#mask2_8_2)">
<path d="M317.414 255.553C314.125 253.701 303.117 258.122 303.117 267.064C297.271 247.174 281.047 220.251 281.047 190.828C288.485 165.178 307.887 124.74 312.22 118.393C315.108 114.162 329.421 108.239 355.158 100.626C360.915 106.915 367.737 110.059 375.625 110.059C387.457 110.059 388.078 102.806 391.239 102.428C394.4 102.049 412.307 110.059 421.139 118.581C429.971 127.103 439.427 160.62 462.659 186.637C485.892 212.655 494.225 230.807 505.752 240.583C501.523 244.368 495.794 246.573 495.794 255.553C491.622 252.495 468.344 236.492 448.614 217.863C428.885 199.235 420.135 183.743 417.157 181.646C413.733 179.234 421.473 253.851 421.139 267.064C420.805 280.277 375.356 281.031 361.143 281.031C346.93 281.031 324.949 276.113 319.307 271.264C318.377 270.465 320.815 165.555 319.307 169.957C315.483 181.125 306.602 186.637 306.602 193.992C306.602 211.084 317.434 256.756 317.414 255.553Z" fill="#2D6DC0"/>
<g filter="url(#filter1_i_8_2)">
<path d="M317.414 255.553C314.125 253.701 303.117 258.122 303.117 267.064C297.271 247.174 281.047 220.251 281.047 190.828C288.485 165.178 307.887 124.74 312.22 118.393C315.108 114.162 329.421 108.239 355.158 100.626C360.915 106.915 367.737 110.059 375.625 110.059C387.457 110.059 388.078 102.806 391.239 102.428C394.4 102.049 412.307 110.059 421.139 118.581C429.971 127.103 439.427 160.62 462.659 186.637C485.892 212.655 494.225 230.807 505.752 240.583C501.523 244.368 495.794 246.573 495.794 255.553C491.622 252.495 468.344 236.492 448.614 217.863C428.885 199.235 420.135 183.743 417.157 181.646C413.733 179.234 421.473 253.851 421.139 267.064C420.805 280.277 375.356 281.031 361.143 281.031C346.93 281.031 324.949 276.113 319.307 271.264C318.377 270.465 320.815 165.555 319.307 169.957C315.483 181.125 306.602 186.637 306.602 193.992C306.602 211.084 317.434 256.756 317.414 255.553Z" fill="#2D6DC0"/>
</g>
<path style="mix-blend-mode:multiply" fill-rule="evenodd" clip-rule="evenodd" d="M314.542 179.148L334.904 152.097C339.933 210.579 331.224 249.948 308.777 270.206C302.844 235.057 306.147 216.686 308.777 201.327C309.929 194.603 311.85 187.21 314.542 179.148Z" fill="url(#paint7_linear_8_2)"/>
<path style="mix-blend-mode:multiply" opacity="0.161551" fill-rule="evenodd" clip-rule="evenodd" d="M321.331 276.315C328.932 254.055 363.091 180.738 377.71 170.283C392.329 159.829 393.431 146.336 392.88 128.427C392.329 110.518 358.184 74.8362 340.332 88.3324C322.481 101.829 274.69 126.729 269.464 168.484C264.238 210.238 286.495 274.283 296.549 267.952C306.604 261.621 313.73 298.576 321.331 276.315Z" fill="url(#paint8_linear_8_2)"/>
</g>
<path fill-rule="evenodd" clip-rule="evenodd" d="M357.324 87.1118C357.324 91.1821 363.516 102.56 375.474 102.127C387.431 101.694 389.837 101.365 391.196 95.2957C391.196 104.287 391.661 106.941 389.456 112.871C387.251 118.8 373.506 122.051 365.798 117.126C358.089 112.201 354.072 109.252 355.199 100.261C356.327 91.2689 357.324 83.0415 357.324 87.1118Z" fill="url(#paint9_linear_8_2)"/>
<path fill-rule="evenodd" clip-rule="evenodd" d="M86.133 211.91L195.788 185.427C216.068 240.083 225.269 285.037 223.39 320.287C201.247 329.461 168.032 341.356 123.745 355.972L78.4648 225.963C76.5024 220.328 79.4811 214.17 85.1178 212.209C85.4512 212.093 85.7899 211.993 86.133 211.91Z" fill="url(#paint10_linear_8_2)"/>
<path fill-rule="evenodd" clip-rule="evenodd" d="M210.952 192.821C208.604 200.253 216.231 221.238 228.347 231.492C240.463 241.747 201.493 240.003 201.47 228.57C201.447 217.137 213.299 185.388 210.952 192.821Z" fill="#316EEA"/>
<path fill-rule="evenodd" clip-rule="evenodd" d="M216.255 216.11C225.418 219.888 232.024 223.921 236.073 228.211C242.146 234.647 271.681 284.7 275.164 287.663C278.646 290.626 302.613 292.871 306.221 294.053C304.376 296.723 300.785 304.966 302.631 312.217C296.935 315.083 284.424 312.524 258.832 309.658C239.795 293.74 229.91 268.635 225.839 256.65C221.769 244.665 218.574 231.152 216.255 216.11Z" fill="#2D6DC0"/>
<path fill-rule="evenodd" clip-rule="evenodd" d="M228.828 224.694C236.225 237.342 247.636 262.739 250.877 273.702C254.352 285.461 240.843 316.425 241 323.701C241.131 329.769 234.885 327.65 179.398 333.232C177.683 322.534 177.683 309.158 179.398 293.103C181.97 269.022 171.488 236.622 174.394 231.182C177.3 225.742 184.37 214.173 187.473 214.173C190.577 214.173 221.43 212.046 228.828 224.694Z" fill="url(#paint11_radial_8_2)"/>
<path fill-rule="evenodd" clip-rule="evenodd" d="M228.828 224.694C236.225 237.342 247.636 262.739 250.877 273.702C254.352 285.461 240.843 316.425 241 323.701C241.131 329.769 234.885 327.65 179.398 333.232C177.683 322.534 177.683 309.158 179.398 293.103C181.97 269.022 171.488 236.622 174.394 231.182C177.3 225.742 184.37 214.173 187.473 214.173C190.577 214.173 221.43 212.046 228.828 224.694Z" fill="#2D6DC0"/>
<path fill-rule="evenodd" clip-rule="evenodd" d="M0 357.818L312.162 292.679C329.678 289.024 357.543 290.915 374.399 296.903L702.407 413.426C730.508 423.409 729.513 435.908 700.202 441.34L561.891 466.974C532.571 472.408 484.626 476.813 454.804 476.813H53.9992C24.1763 476.813 0 452.643 0 422.821V357.818Z" fill="url(#paint12_linear_8_2)"/>
<path style="mix-blend-mode:multiply" opacity="0.196931" fill-rule="evenodd" clip-rule="evenodd" d="M240.246 369.39L372.525 348.019L473.171 392.097L327.465 430.733" fill="url(#paint13_linear_8_2)"/>
<mask id="mask3_8_2" style="mask-type:alpha" maskUnits="userSpaceOnUse" x="184" y="185" width="25" height="36">
<path d="M208.026 195.899C206.643 202.356 207.836 207.028 207.836 214.377C207.836 224.2 187.77 220.203 187.085 212.757C186.4 205.31 187.209 195.327 184.383 188.562C181.557 181.798 209.408 189.442 208.026 195.899Z" fill="white"/>
</mask>
<g mask="url(#mask3_8_2)">
<path d="M208.026 195.899C206.643 202.356 207.836 207.028 207.836 214.377C207.836 224.2 187.77 220.203 187.085 212.757C186.4 205.31 187.209 195.327 184.383 188.562C181.557 181.798 209.408 189.442 208.026 195.899Z" fill="#BC9F88"/>
<path style="mix-blend-mode:multiply" opacity="0.717132" fill-rule="evenodd" clip-rule="evenodd" d="M179.298 224.634C199.505 207.71 211.941 199.247 216.604 199.247C221.268 199.247 208.832 196.41 179.298 190.736V224.634Z" fill="url(#paint14_linear_8_2)"/>
</g>
<path fill-rule="evenodd" clip-rule="evenodd" d="M214.187 143.939C215.971 149.569 215.771 155.812 219.232 161.188C222.692 166.564 227.252 171.26 228.463 173.649C229.674 176.037 223.605 178.16 223.605 180.296C223.605 182.432 227.649 197.295 225.485 198.716C224.252 202.035 201.542 206.636 195.807 203.34C190.752 203.34 182.961 198.906 178.179 188.012C173.398 177.118 173.178 150.664 178.179 143.939C183.181 137.214 212.404 138.31 214.187 143.939Z" fill="#F7CAA4"/>
<mask id="mask4_8_2" style="mask-type:alpha" maskUnits="userSpaceOnUse" x="249" y="295" width="112" height="65">
<path d="M249.622 359.124L257.198 297.684L360.516 295.614L351.482 355.597L249.622 359.124Z" fill="white"/>
</mask>
<g mask="url(#mask4_8_2)">
<path d="M249.622 359.124L257.198 297.684L360.516 295.614L351.482 355.597L249.622 359.124Z" fill="#0D85F4"/>
<path style="mix-blend-mode:multiply" opacity="0.458036" fill-rule="evenodd" clip-rule="evenodd" d="M356.952 342.569L343.503 294H365.169L356.952 342.569Z" fill="url(#paint15_linear_8_2)"/>
<path style="mix-blend-mode:multiply" opacity="0.528404" fill-rule="evenodd" clip-rule="evenodd" d="M261.104 330.782C261.104 334.658 270.439 340.283 281.415 345.207C287.779 348.061 286.902 354.689 289.671 354.689C294.702 354.689 279.357 361.946 243.637 376.459C241.7 356.833 241.7 344.46 243.637 339.338C246.804 330.965 261.104 328.654 261.104 330.782Z" fill="url(#paint16_linear_8_2)"/>
</g>
<path fill-rule="evenodd" clip-rule="evenodd" d="M241.209 334.199C244.346 334.199 248.145 332.54 253.693 331.273C259.241 330.005 262.74 327.991 264.443 329.865C265.109 330.597 263.998 332.379 263.187 332.865C262.375 333.351 261.945 334.066 258.07 335.498C254.475 336.827 252.393 337.449 253.043 338.687C253.693 339.925 259.583 341.002 261.47 341.502C263.877 342.139 267.498 343.382 270.951 343.962C274.81 344.609 279.074 344.681 279.564 344.964C280.493 345.5 281.85 347.516 279.564 348.159C279.024 348.311 275.119 348.39 270.369 348.159C265.297 347.913 260.645 346.941 261.47 348.159C261.665 348.448 266.343 349.402 271.48 349.402C274.525 349.402 280.687 349.78 281.077 349.78C282.486 349.78 283.193 351.706 281.915 352.654C281.617 352.875 275.671 353.548 270.951 353.721C265.519 353.921 260.711 353.429 260.654 353.721C260.613 353.934 266.335 354.654 271.48 354.409C275.644 354.211 277.933 353.885 278.711 354.409C279.49 354.933 279.293 356.332 278.711 356.962C278.47 357.224 274.708 358.42 270.951 358.668C265.676 359.018 259.945 358.407 259.894 358.668C259.759 359.361 269.507 359.8 270.951 359.8C273.007 359.8 272.748 362.457 270.369 363.02C267.384 363.726 261.21 363.67 258.399 363.67C255.589 363.67 251.366 363.02 247.141 361.452C242.915 359.884 237.273 357.784 233.697 356.962C229.832 356.074 232.607 343.859 235.283 337.45C237.96 331.041 238.072 334.199 241.209 334.199Z" fill="#F7CAA4"/>
<path fill-rule="evenodd" clip-rule="evenodd" d="M147.823 263.728C139.831 284.157 146.149 299.663 149.658 317.362C153.166 335.062 154.762 338.892 160.354 342.492C165.945 346.092 179.656 351.106 232.354 357.19C232.354 352.982 232.22 342.53 239.108 333.753C229.37 333.753 194.754 324.209 182.852 321.218C172.159 313.027 182.852 299.894 182.852 275.253C182.852 250.613 155.815 243.3 147.823 263.728Z" fill="#2D6DC0"/>
<path fill-rule="evenodd" clip-rule="evenodd" d="M205.608 164.986L178.633 170.066V172.084L206.568 169.958L205.608 164.986Z" fill="#143B8C"/>
<path fill-rule="evenodd" clip-rule="evenodd" d="M212.789 175.543C209.675 175.87 206.729 172.164 206.214 167.272C205.7 162.38 207.811 158.143 210.925 157.816C214.039 157.489 216.985 161.194 217.5 166.086C218.014 170.978 215.903 175.215 212.789 175.543Z" stroke="#143B8C" stroke-width="2.16"/>
<path fill-rule="evenodd" clip-rule="evenodd" d="M227.83 166.828C225.013 167.124 222.347 163.771 221.882 159.345C221.417 154.919 223.326 151.085 226.144 150.789C228.962 150.493 231.627 153.846 232.092 158.272C232.558 162.698 230.648 166.532 227.83 166.828Z" stroke="#143B8C" stroke-width="2.16"/>
<path d="M216.933 164.379C216.933 163.145 220.418 160.725 222.166 161.943" stroke="#143B8C" stroke-width="2.16"/>
<path fill-rule="evenodd" clip-rule="evenodd" d="M180.053 146.503C187.52 152.275 204.896 153.968 216.724 148.391C228.551 142.814 231.437 119.983 216.724 112.958C211.127 110.287 200.012 112.016 201.554 120.07C188.681 115.095 174.682 119.452 169.132 122.771C160.485 127.942 153.744 133.577 150.2 145.423C146.655 157.268 152.442 169.048 149.594 175.081C146.746 181.113 138.357 186.351 142.842 204.889C147.327 223.426 136.55 220.46 134.12 231.768C131.69 243.075 139.429 248.47 134.12 256.005C128.811 263.539 118.633 295.347 137.696 312.383C156.76 329.418 192.283 341.83 200.356 305.158C208.428 268.485 170.561 260.479 181.674 242.141C192.786 223.802 185.425 206.8 187.751 201.557C190.612 195.107 187.536 185.263 182.101 171.923C177.067 159.568 184.314 156.269 180.053 146.503Z" fill="#143B8C"/>
<path fill-rule="evenodd" clip-rule="evenodd" d="M246.371 405.187L318.271 392.838C357.958 417.629 377.406 430.104 376.618 430.263C375.496 430.489 296.102 444.366 290.739 445.805C291.241 444.524 276.448 430.981 246.371 405.187Z" fill="url(#paint17_linear_8_2)"/>
<path fill-rule="evenodd" clip-rule="evenodd" d="M289.059 386.009L364.198 380.955L405.505 417.031L311.894 423.487L289.059 386.009Z" fill="url(#paint18_linear_8_2)"/>
<path d="M473.495 391.408L541.735 364.248C543.121 363.696 543.797 362.125 543.245 360.74C542.958 360.02 542.376 359.458 541.646 359.196L454.757 328.067L369.041 349.243L473.495 391.408Z" fill="url(#paint19_linear_8_2)"/>
<g filter="url(#filter2_i_8_2)">
<path d="M473.495 391.408L541.735 364.248C543.121 363.696 543.797 362.125 543.245 360.74C542.958 360.02 542.376 359.458 541.646 359.196L454.757 328.067L369.041 349.243L473.495 391.408Z" fill="#929CB0"/>
</g>
<path d="M353.848 261.036L450.13 292.18C452.963 293.096 455.065 295.491 455.605 298.418L472.833 391.748L368.5 349.442L349.685 264.822C349.296 263.075 350.399 261.344 352.146 260.955C352.711 260.83 353.298 260.858 353.848 261.036Z" fill="url(#paint20_linear_8_2)"/>
<path d="M353.848 261.036L450.13 292.18C452.963 293.096 455.065 295.491 455.605 298.418L472.833 391.748L368.5 349.442L349.685 264.822C349.296 263.075 350.399 261.344 352.146 260.955C352.711 260.83 353.298 260.858 353.848 261.036Z" fill="url(#paint21_linear_8_2)" fill-opacity="0.23"/>
<g filter="url(#filter3_i_8_2)">
<path d="M353.848 261.036L450.13 292.18C452.963 293.096 455.065 295.491 455.605 298.418L472.833 391.748L368.5 349.442L349.685 264.822C349.296 263.075 350.399 261.344 352.146 260.955C352.711 260.83 353.298 260.858 353.848 261.036Z" fill="#A6A2A2"/>
</g>
<path fill-rule="evenodd" clip-rule="evenodd" d="M402.147 329.821C407.109 332.24 412.341 332.235 414.5 327.812C416.659 323.388 412.765 318.38 407.802 315.961C402.84 313.542 398.148 313.546 395.99 317.97C393.831 322.394 397.185 327.402 402.147 329.821Z" fill="#D6E3FA"/>
<path fill-rule="evenodd" clip-rule="evenodd" d="M369.39 56.3944C369.379 54.3077 371.061 52.6062 373.152 52.5942L383.217 52.536C385.305 52.5239 386.969 54.2152 386.933 56.2915L386.849 61.1579C386.813 63.244 385.089 64.9137 382.998 64.8872L373.22 64.7631C371.13 64.7366 369.426 63.02 369.415 60.9366L369.39 56.3944Z" stroke="#0E1827" stroke-width="2.7"/>
<path fill-rule="evenodd" clip-rule="evenodd" d="M397.98 56.3412C397.957 54.2553 399.629 52.565 401.719 52.5658L410.238 52.5692C412.326 52.57 414.002 54.2708 413.982 56.346L413.935 61.2098C413.915 63.2948 412.205 64.9501 410.128 64.9073L401.842 64.7363C399.76 64.6933 398.053 62.9641 398.03 60.8816L397.98 56.3412Z" stroke="#0E1827" stroke-width="2.7"/>
<path d="M386.873 57.9549H397.68" stroke="#0E1827" stroke-width="2.16"/>
<path fill-rule="evenodd" clip-rule="evenodd" d="M357.044 48.7625L370.212 55.1559V61.4164L358.294 53.1039L357.044 48.7625Z" fill="#131F31"/>
<path fill-rule="evenodd" clip-rule="evenodd" d="M223.834 184.268C224.364 183.995 224.198 185.204 224.428 185.914C224.659 186.623 224.816 186.735 224.892 187.197C222.692 188.331 218.861 188.554 216.297 187.037C215.783 186.734 215.334 186.485 215.76 186.066C216.185 185.648 216.716 185.91 217.288 186.079C219.285 186.67 222.462 184.974 223.834 184.268Z" fill="#1A418F"/>
<path opacity="0.7" fill-rule="evenodd" clip-rule="evenodd" d="M146.437 427.407C164.343 427.407 178.859 430.551 178.859 434.429C178.859 438.307 164.343 441.45 146.437 441.45C128.531 441.45 114.016 438.307 114.016 434.429C114.016 430.551 128.531 427.407 146.437 427.407Z" fill="url(#paint22_linear_8_2)"/>
<mask id="mask5_8_2" style="mask-type:alpha" maskUnits="userSpaceOnUse" x="115" y="392" width="79" height="49">
<path d="M189.643 393.579C192.082 397.851 193.448 402.637 193.448 407.692C193.448 425.74 176.03 440.37 154.543 440.37C133.055 440.37 115.637 425.74 115.637 407.692C115.637 402.343 117.167 397.294 119.879 392.838C137.114 395.565 171.42 395.39 189.643 393.579Z" fill="white"/>
</mask>
<g mask="url(#mask5_8_2)">
<path d="M189.643 393.579C192.082 397.851 193.448 402.637 193.448 407.692C193.448 425.74 176.03 440.37 154.543 440.37C133.055 440.37 115.637 425.74 115.637 407.692C115.637 402.343 117.167 397.294 119.879 392.838C137.114 395.565 171.42 395.39 189.643 393.579Z" fill="url(#paint23_linear_8_2)"/>
</g>
<mask id="mask6_8_2" style="mask-type:alpha" maskUnits="userSpaceOnUse" x="119" y="386" width="72" height="18">
<path d="M154.813 386.357C174.36 386.357 190.206 390.105 190.206 394.729C190.206 399.353 174.36 403.101 154.813 403.101C135.265 403.101 119.419 399.353 119.419 394.729C119.419 390.105 135.265 386.357 154.813 386.357Z" fill="white"/>
</mask>
<g mask="url(#mask6_8_2)">
<path d="M154.813 386.357C174.36 386.357 190.206 390.105 190.206 394.729C190.206 399.353 174.36 403.101 154.813 403.101C135.265 403.101 119.419 399.353 119.419 394.729C119.419 390.105 135.265 386.357 154.813 386.357Z" fill="url(#paint24_linear_8_2)"/>
</g>
<mask id="mask7_8_2" style="mask-type:alpha" maskUnits="userSpaceOnUse" x="117" y="289" width="43" height="100">
<path d="M151.841 388.517C149.908 375.147 144.591 355.84 128.605 335.044C119.189 322.794 119.158 292.962 117.798 289.673C125.187 292.213 138.461 298.76 151.841 317.22C165.867 336.571 156.969 376.035 151.841 388.517Z" fill="white"/>
</mask>
<g mask="url(#mask7_8_2)">
<path d="M151.841 388.517C149.908 375.147 144.591 355.84 128.605 335.044C119.189 322.794 119.158 292.962 117.798 289.673C125.187 292.213 138.461 298.76 151.841 317.22C165.867 336.571 156.969 376.035 151.841 388.517Z" fill="#44E694"/>
</g>
<mask id="mask8_8_2" style="mask-type:alpha" maskUnits="userSpaceOnUse" x="92" y="338" width="60" height="65">
<path d="M151.9 402.241C145.929 392.694 135.378 379.756 116.187 369.265C104.882 363.085 94.8258 340.346 92.6817 338.294C99.1741 337.749 111.505 338.284 127.923 347.869C145.133 357.916 151.616 391 151.9 402.241Z" fill="white"/>
</mask>
<g mask="url(#mask8_8_2)">
<path d="M151.9 402.241C145.929 392.694 135.378 379.756 116.187 369.265C104.882 363.085 94.8258 340.346 92.6817 338.294C99.1741 337.749 111.505 338.284 127.923 347.869C145.133 357.916 151.616 391 151.9 402.241Z" fill="#44E594"/>
</g>
<mask id="mask9_8_2" style="mask-type:alpha" maskUnits="userSpaceOnUse" x="155" y="332" width="52" height="72">
<path d="M156.189 403.55C160.897 393.273 169.727 379.03 187.481 366.11C197.939 358.5 205.003 334.561 206.872 332.241C200.335 332.536 188.122 334.659 173.013 346.319C157.175 358.541 155.013 392.32 156.189 403.55Z" fill="white"/>
</mask>
<g mask="url(#mask9_8_2)">
<path d="M156.189 403.55C160.897 393.273 169.727 379.03 187.481 366.11C197.939 358.5 205.003 334.561 206.872 332.241C200.335 332.536 188.122 334.659 173.013 346.319C157.175 358.541 155.013 392.32 156.189 403.55Z" fill="#44E594"/>
</g>
<defs>
<filter id="filter0_i_8_2" x="443.168" y="243.017" width="157.941" height="127.002" filterUnits="userSpaceOnUse" color-interpolation-filters="sRGB">
<feFlood flood-opacity="0" result="BackgroundImageFix"/>
<feBlend mode="normal" in="SourceGraphic" in2="BackgroundImageFix" result="shape"/>
<feColorMatrix in="SourceAlpha" type="matrix" values="0 0 0 0 0 0 0 0 0 0 0 0 0 0 0 0 0 0 127 0" result="hardAlpha"/>
<feOffset dx="-6" dy="1"/>
<feGaussianBlur stdDeviation="7"/>
<feComposite in2="hardAlpha" operator="arithmetic" k2="-1" k3="1"/>
<feColorMatrix type="matrix" values="0 0 0 0 0.0901961 0 0 0 0 0.254902 0 0 0 0 0.572549 0 0 0 0.204201 0"/>
<feBlend mode="normal" in2="shape" result="effect1_innerShadow_8_2"/>
</filter>
<filter id="filter1_i_8_2" x="281.047" y="100.626" width="228.704" height="182.405" filterUnits="userSpaceOnUse" color-interpolation-filters="sRGB">
<feFlood flood-opacity="0" result="BackgroundImageFix"/>
<feBlend mode="normal" in="SourceGraphic" in2="BackgroundImageFix" result="shape"/>
<feColorMatrix in="SourceAlpha" type="matrix" values="0 0 0 0 0 0 0 0 0 0 0 0 0 0 0 0 0 0 127 0" result="hardAlpha"/>
<feOffset dx="4" dy="2"/>
<feGaussianBlur stdDeviation="6.5"/>
<feComposite in2="hardAlpha" operator="arithmetic" k2="-1" k3="1"/>
<feColorMatrix type="matrix" values="0 0 0 0 0.729412 0 0 0 0 0.8 0 0 0 0 0.933333 0 0 0 1 0"/>
<feBlend mode="normal" in2="shape" result="effect1_innerShadow_8_2"/>
</filter>
<filter id="filter2_i_8_2" x="360.041" y="324.067" width="183.397" height="67.3412" filterUnits="userSpaceOnUse" color-interpolation-filters="sRGB">
<feFlood flood-opacity="0" result="BackgroundImageFix"/>
<feBlend mode="normal" in="SourceGraphic" in2="BackgroundImageFix" result="shape"/>
<feColorMatrix in="SourceAlpha" type="matrix" values="0 0 0 0 0 0 0 0 0 0 0 0 0 0 0 0 0 0 127 0" result="hardAlpha"/>
<feOffset dx="-9" dy="-4"/>
<feGaussianBlur stdDeviation="6.5"/>
<feComposite in2="hardAlpha" operator="arithmetic" k2="-1" k3="1"/>
<feColorMatrix type="matrix" values="0 0 0 0 0.239216 0 0 0 0 0.509804 0 0 0 0 0.941176 0 0 0 0.775419 0"/>
<feBlend mode="normal" in2="shape" result="effect1_innerShadow_8_2"/>
</filter>
<filter id="filter3_i_8_2" x="345.607" y="260.878" width="127.226" height="131.87" filterUnits="userSpaceOnUse" color-interpolation-filters="sRGB">
<feFlood flood-opacity="0" result="BackgroundImageFix"/>
<feBlend mode="normal" in="SourceGraphic" in2="BackgroundImageFix" result="shape"/>
<feColorMatrix in="SourceAlpha" type="matrix" values="0 0 0 0 0 0 0 0 0 0 0 0 0 0 0 0 0 0 127 0" result="hardAlpha"/>
<feOffset dx="-4" dy="1"/>
<feGaussianBlur stdDeviation="3"/>
<feComposite in2="hardAlpha" operator="arithmetic" k2="-1" k3="1"/>
<feColorMatrix type="matrix" values="0 0 0 0 1 0 0 0 0 1 0 0 0 0 1 0 0 0 0.5 0"/>
<feBlend mode="normal" in2="shape" result="effect1_innerShadow_8_2"/>
</filter>
<linearGradient id="paint0_linear_8_2" x1="351.461" y1="213.396" x2="351.461" y2="28.5413" gradientUnits="userSpaceOnUse">
<stop stop-color="#ECF2FC" stop-opacity="0.642323"/>
<stop offset="1" stop-color="#D4E1F8"/>
</linearGradient>
<linearGradient id="paint1_linear_8_2" x1="550.304" y1="276.971" x2="617.721" y2="257.154" gradientUnits="userSpaceOnUse">
<stop stop-color="#7FA0D4"/>
<stop offset="1" stop-color="#D6E3FA"/>
</linearGradient>
<linearGradient id="paint2_linear_8_2" x1="554.767" y1="202.337" x2="554.767" y2="255.586" gradientUnits="userSpaceOnUse">
<stop stop-color="#CFDDF3"/>
<stop offset="1" stop-color="#A1B8E3" stop-opacity="0"/>
</linearGradient>
<linearGradient id="paint3_linear_8_2" x1="507.477" y1="317.417" x2="499.708" y2="345.891" gradientUnits="userSpaceOnUse">
<stop stop-color="#2E7DE7" stop-opacity="0"/>
<stop offset="1" stop-color="#00357E" stop-opacity="0.5"/>
</linearGradient>
<linearGradient id="paint4_linear_8_2" x1="541.006" y1="262.077" x2="541.006" y2="231.103" gradientUnits="userSpaceOnUse">
<stop stop-color="#70B8F9" stop-opacity="0.275872"/>
<stop offset="1" stop-color="#DA4931"/>
</linearGradient>
<linearGradient id="paint5_linear_8_2" x1="540.019" y1="323.828" x2="572.386" y2="340.5" gradientUnits="userSpaceOnUse">
<stop stop-color="#EB8B3F" stop-opacity="0"/>
<stop offset="1" stop-color="#853620"/>
</linearGradient>
<linearGradient id="paint6_linear_8_2" x1="464.599" y1="297.482" x2="503.118" y2="315.181" gradientUnits="userSpaceOnUse">
<stop stop-color="#3D82F0" stop-opacity="0"/>
<stop offset="1" stop-color="#BC4231"/>
</linearGradient>
<linearGradient id="paint7_linear_8_2" x1="305.454" y1="278.872" x2="363.706" y2="263.509" gradientUnits="userSpaceOnUse">
<stop stop-color="#2D6DC0" stop-opacity="0.115546"/>
<stop offset="1" stop-color="#2D6DC0"/>
</linearGradient>
<linearGradient id="paint8_linear_8_2" x1="403.958" y1="152.601" x2="312.679" y2="165.506" gradientUnits="userSpaceOnUse">
<stop stop-color="#2D6DC0" stop-opacity="0.115546"/>
<stop offset="1" stop-color="#2D6DC0"/>
</linearGradient>
<linearGradient id="paint9_linear_8_2" x1="360.882" y1="102.786" x2="370.308" y2="102.786" gradientUnits="userSpaceOnUse">
<stop stop-color="#B1C6E7"/>
<stop offset="1" stop-color="#E5EFFD"/>
</linearGradient>
<linearGradient id="paint10_linear_8_2" x1="161.561" y1="270.699" x2="108.643" y2="260.221" gradientUnits="userSpaceOnUse">
<stop stop-color="#7FA0D4"/>
<stop offset="1" stop-color="#D6E3FA"/>
</linearGradient>
<radialGradient id="paint11_radial_8_2" cx="0" cy="0" r="1" gradientUnits="userSpaceOnUse" gradientTransform="translate(-221.228 -125.957) rotate(-175.35) scale(56.0203 59.6166)">
<stop stop-color="#2D6DC0"/>
<stop offset="1" stop-color="#143B8C"/>
</radialGradient>
<linearGradient id="paint12_linear_8_2" x1="312.502" y1="300.134" x2="311.417" y2="428.683" gradientUnits="userSpaceOnUse">
<stop stop-color="#EAEFFF"/>
<stop offset="1" stop-color="white"/>
</linearGradient>
<linearGradient id="paint13_linear_8_2" x1="356.708" y1="348.019" x2="354.692" y2="398.434" gradientUnits="userSpaceOnUse">
<stop stop-color="#0041B2"/>
<stop offset="1" stop-color="#2D64D7" stop-opacity="0"/>
</linearGradient>
<linearGradient id="paint14_linear_8_2" x1="198.428" y1="190.736" x2="198.428" y2="224.634" gradientUnits="userSpaceOnUse">
<stop stop-color="#699DF3"/>
<stop offset="1" stop-color="#8597B5" stop-opacity="0"/>
</linearGradient>
<linearGradient id="paint15_linear_8_2" x1="359.285" y1="307.564" x2="342.363" y2="309.852" gradientUnits="userSpaceOnUse">
<stop stop-color="#FF7F31"/>
<stop offset="1" stop-color="#FFC83A" stop-opacity="0"/>
</linearGradient>
<linearGradient id="paint16_linear_8_2" x1="266.393" y1="362.528" x2="289.964" y2="346.114" gradientUnits="userSpaceOnUse">
<stop stop-color="#FF7F31"/>
<stop offset="1" stop-color="#FFC83A" stop-opacity="0"/>
</linearGradient>
<linearGradient id="paint17_linear_8_2" x1="311.506" y1="392.838" x2="311.506" y2="445.805" gradientUnits="userSpaceOnUse">
<stop stop-color="#B2C7E8"/>
<stop offset="1" stop-color="#D6E3FA"/>
</linearGradient>
<linearGradient id="paint18_linear_8_2" x1="347.282" y1="380.955" x2="347.282" y2="423.487" gradientUnits="userSpaceOnUse">
<stop stop-color="#C6D6EE"/>
<stop offset="1" stop-color="#E5EFFD"/>
</linearGradient>
<linearGradient id="paint19_linear_8_2" x1="438.755" y1="341.785" x2="482.987" y2="341.785" gradientUnits="userSpaceOnUse">
<stop stop-color="#002B64"/>
<stop offset="1" stop-color="#0F3177"/>
</linearGradient>
<linearGradient id="paint20_linear_8_2" x1="452.922" y1="296.411" x2="367.764" y2="351.599" gradientUnits="userSpaceOnUse">
<stop stop-color="#DBE9FF"/>
<stop offset="0.440948" stop-color="#A7BDE4"/>
<stop offset="1" stop-color="#5876AF"/>
</linearGradient>
<linearGradient id="paint21_linear_8_2" x1="432.381" y1="357.358" x2="426.365" y2="371.407" gradientUnits="userSpaceOnUse">
<stop stop-color="#869FCE" stop-opacity="0"/>
<stop offset="1" stop-color="#4975C1"/>
</linearGradient>
<linearGradient id="paint22_linear_8_2" x1="178.859" y1="434.429" x2="114.016" y2="434.429" gradientUnits="userSpaceOnUse">
<stop stop-color="#D9E5F6" stop-opacity="0.712636"/>
<stop offset="1" stop-color="#B2C6EA"/>
</linearGradient>
<linearGradient id="paint23_linear_8_2" x1="151.036" y1="450.953" x2="161.369" y2="410.677" gradientUnits="userSpaceOnUse">
<stop stop-color="#ACC5E9"/>
<stop offset="0.627469" stop-color="#D3E3FB"/>
<stop offset="1" stop-color="#EAF2FF"/>
</linearGradient>
<linearGradient id="paint24_linear_8_2" x1="174.35" y1="386.357" x2="172.78" y2="412.354" gradientUnits="userSpaceOnUse">
<stop stop-color="#86A8D9"/>
<stop offset="1" stop-color="#BCD0F2"/>
</linearGradient>
</defs>
</svg>
