<?xml version="1.0" encoding="utf-8"?>
<!-- Generator: Adobe Illustrator 19.0.0, SVG Export Plug-In . SVG Version: 6.00 Build 0)  -->
<svg version="1.1" id="Layer_1" xmlns="http://www.w3.org/2000/svg" xmlns:xlink="http://www.w3.org/1999/xlink" x="0px" y="0px"
	 viewBox="655 -283 1440 653.9" style="enable-background:new 655 -283 1440 653.9;" xml:space="preserve">
<style type="text/css">
	.st0{fill:#2D94F3;}
	.st1{fill:#2D94F3;fill-opacity:0.2475;}
</style>
<title>Group 37</title>
<desc>Created with Sketch.</desc>
<g id="Group-37" transform="translate(-45.000000, 2456.000000)">
	<g id="Group-38">
		<g id="Group-52">
			<g id="bg-pattern" transform="translate(34.000000, 18.000000)">
				<polygon id="Fill-3" class="st0" points="676.1,-2144.7 666,-2127.7 682.7,-2128 692.4,-2145 				"/>
				<polygon id="Fill-3_1_" class="st0" points="2089.8,-2739.8 2079.7,-2722.8 2096.4,-2723.1 2106.1,-2740 				"/>
				<polygon id="Fill-3_2_" class="st1" points="2089.6,-2337.8 2079.6,-2320.8 2096.3,-2321.1 2106,-2338.1 				"/>
			</g>
			<g id="bg-pattern_1_">
				<polygon id="Fill-3_3_" class="st1" points="1744.8,-2738.7 1734.8,-2721.8 1751.4,-2722.1 1761.1,-2739 				"/>
				<polygon id="Fill-3_4_" class="st1" points="1883.7,-2102 1873.7,-2085.1 1890.3,-2085.4 1899.9,-2102.3 				"/>
				<polygon id="Fill-3_5_" class="st1" points="811.2,-2722 804.2,-2710.1 815.8,-2710.3 822.7,-2722.2 				"/>
				<polygon id="Fill-3_6_" class="st1" points="1131.1,-2390.2 1121.1,-2373.3 1137.7,-2373.6 1147.4,-2390.5 				"/>
			</g>
		</g>
		<g id="Group-34" transform="translate(45.000000, 55.000000)">
		</g>
	</g>
</g>
</svg>
