<?xml version="1.0" encoding="iso-8859-1"?>
<!-- Generator: Adobe Illustrator 17.1.0, SVG Export Plug-In . SVG Version: 6.00 Build 0)  -->
<!DOCTYPE svg PUBLIC "-//W3C//DTD SVG 1.1//EN" "http://www.w3.org/Graphics/SVG/1.1/DTD/svg11.dtd">
<svg version="1.1" id="Capa_1" xmlns="http://www.w3.org/2000/svg" xmlns:xlink="http://www.w3.org/1999/xlink" x="0px" y="0px"
	 viewBox="0 0 318.486 318.486" style="enable-background:new 0 0 318.486 318.486;" xml:space="preserve" width="35px">
<g>
	<path d="M111.104,114.167h40.639v22.743c0,4.142,3.357,7.5,7.5,7.5s7.5-3.358,7.5-7.5v-22.743h40.639c4.143,0,7.5-3.358,7.5-7.5
		V59.455c0-4.142-3.357-7.5-7.5-7.5h-96.277c-4.143,0-7.5,3.358-7.5,7.5v47.211C103.604,110.809,106.962,114.167,111.104,114.167z
		 M118.604,66.955h81.277v32.211h-81.277V66.955z"/>
	<path d="M103.776,204.32H7.5c-4.143,0-7.5,3.358-7.5,7.5v47.211c0,4.142,3.357,7.5,7.5,7.5h96.276c4.143,0,7.5-3.358,7.5-7.5
		V211.82C111.276,207.678,107.919,204.32,103.776,204.32z M96.276,251.531H15V219.32h81.276V251.531z"/>
	<path d="M310.986,227.925c-4.143,0-7.5,3.358-7.5,7.5v16.106H222.21V219.32h88.776c4.143,0,7.5-3.358,7.5-7.5s-3.357-7.5-7.5-7.5
		h-40.855c-2.47-29.993-27.652-53.649-58.272-53.649H106.627c-22.51,0-43.274,13.154-52.9,33.511
		c-1.771,3.745-0.17,8.216,3.574,9.986c3.746,1.77,8.215,0.17,9.986-3.574c7.159-15.14,22.601-24.923,39.34-24.923h105.232
		c22.343,0,40.797,16.94,43.212,38.649H214.71c-4.143,0-7.5,3.358-7.5,7.5v47.211c0,4.142,3.357,7.5,7.5,7.5h96.276
		c4.143,0,7.5-3.358,7.5-7.5v-23.606C318.486,231.283,315.129,227.925,310.986,227.925z"/>
</g>
<g>
</g>
<g>
</g>
<g>
</g>
<g>
</g>
<g>
</g>
<g>
</g>
<g>
</g>
<g>
</g>
<g>
</g>
<g>
</g>
<g>
</g>
<g>
</g>
<g>
</g>
<g>
</g>
<g>
</g>
</svg>
